<svg width="36" height="24" viewBox="0 0 36 24" fill="none" xmlns="http://www.w3.org/2000/svg" xmlns:xlink="http://www.w3.org/1999/xlink">
<path d="M32.346,8.078L4.395,8.078L4.395,2.696C4.395,1.669 5.231,0.833 6.258,0.833C7.04,0.833 7.744,1.328 8.01,2.064L8.145,2.44L7.363,2.721C7.073,2.826 6.841,3.038 6.709,3.317C6.578,3.597 6.563,3.911 6.668,4.201L7.108,5.42C7.145,5.524 7.222,5.609 7.322,5.656C7.378,5.682 7.439,5.696 7.499,5.696C7.547,5.696 7.595,5.687 7.641,5.671L11.38,4.322C11.485,4.285 11.569,4.207 11.616,4.107C11.663,4.008 11.668,3.893 11.631,3.789L11.191,2.57C11.086,2.279 10.875,2.048 10.596,1.916C10.316,1.784 10.002,1.77 9.712,1.875L8.929,2.157L8.793,1.782C8.409,0.716 7.39,0 6.258,0C4.771,0 3.562,1.209 3.562,2.696L3.562,8.078L3.088,8.078C2.432,8.078 1.817,8.332 1.351,8.797C0.89,9.265 0.636,9.88 0.636,10.53C0.636,11.141 0.865,11.723 1.263,12.167C1.263,12.175 1.259,12.181 1.259,12.189C1.259,12.312 1.315,12.42 1.399,12.496L1.399,14.158C1.399,17.076 3.367,19.571 6.145,20.279L5.525,21.732C5.372,22.086 5.366,22.477 5.509,22.832C5.652,23.187 5.926,23.465 6.279,23.614C6.466,23.693 6.654,23.734 6.838,23.734C7.416,23.734 7.934,23.39 8.158,22.859L9.11,20.625C9.13,20.577 9.14,20.529 9.155,20.482L26.279,20.482C26.294,20.53 26.305,20.577 26.325,20.625L27.276,22.858C27.5,23.39 28.019,23.734 28.596,23.734C28.78,23.734 28.968,23.693 29.155,23.614C29.509,23.465 29.783,23.187 29.925,22.832C30.068,22.477 30.062,22.086 29.91,21.734L29.289,20.279C32.068,19.57 34.035,17.075 34.035,14.158L34.035,12.309C34.05,12.294 34.066,12.279 34.081,12.264C34.082,12.263 34.083,12.263 34.083,12.262C34.544,11.794 34.798,11.179 34.798,10.53C34.798,9.178 33.698,8.078 32.346,8.078L32.346,8.078ZM9.994,2.659C10.03,2.646 10.067,2.639 10.104,2.639C10.15,2.639 10.197,2.65 10.24,2.67C10.318,2.707 10.378,2.772 10.407,2.853L10.705,3.68L7.75,4.746L7.451,3.919C7.422,3.838 7.426,3.75 7.463,3.672C7.499,3.594 7.564,3.535 7.646,3.506L8.82,3.082L8.82,3.082C8.82,3.082 8.82,3.082 8.82,3.082L9.994,2.659ZM29.936,8.911L29.936,14.862L25.449,14.862L25.449,8.911L29.936,8.911ZM1.942,9.384C2.248,9.079 2.655,8.911 3.088,8.911L24.616,8.911L24.616,11.772L2.053,11.772C1.687,11.469 1.47,11.015 1.47,10.53C1.47,10.101 1.639,9.693 1.943,9.384L1.942,9.384ZM7.391,22.534C7.297,22.757 7.08,22.9 6.838,22.9C6.766,22.9 6.689,22.883 6.603,22.846C6.455,22.784 6.342,22.669 6.282,22.522C6.223,22.374 6.225,22.211 6.29,22.061L6.983,20.437C7.01,20.441 7.037,20.439 7.065,20.442C7.287,20.466 7.508,20.482 7.728,20.482L8.264,20.482L7.391,22.534ZM29.151,22.522C29.092,22.669 28.978,22.784 28.83,22.846C28.83,22.847 28.83,22.847 28.829,22.847C28.744,22.883 28.668,22.9 28.595,22.9C28.354,22.9 28.137,22.757 28.042,22.533L27.169,20.482L27.705,20.482C27.925,20.482 28.148,20.466 28.37,20.442C28.397,20.439 28.423,20.441 28.45,20.437L29.144,22.063C29.208,22.211 29.211,22.374 29.151,22.522L29.151,22.522ZM33.49,11.676C33.425,11.741 33.355,11.798 33.282,11.851C33.135,11.957 33.074,12.145 33.13,12.317C33.146,12.366 33.17,12.411 33.201,12.449L33.201,14.158C33.201,16.844 31.282,19.12 28.637,19.569C28.326,19.622 28.013,19.649 27.705,19.649L26.621,19.649L8.812,19.649L7.728,19.649C7.42,19.649 7.107,19.621 6.795,19.568C4.151,19.119 2.232,16.844 2.232,14.158L2.232,12.605L24.616,12.605L24.616,15.279C24.616,15.509 24.802,15.696 25.033,15.696L30.353,15.696C30.583,15.696 30.77,15.509 30.77,15.279L30.77,8.911L32.346,8.911C33.238,8.911 33.965,9.637 33.965,10.53C33.965,10.958 33.796,11.365 33.49,11.676L33.49,11.676Z" fill="#000000"/>
</svg>
