<svg width="36" height="24" viewBox="0 0 36 24" fill="none" xmlns="http://www.w3.org/2000/svg" xmlns:xlink="http://www.w3.org/1999/xlink">
<path d="M30.766,5.2L15.166,5.2C14.924,5.2 14.733,5.391 14.733,5.633L14.733,13L3.466,13L3.466,0.433C3.466,0.191 3.276,0 3.033,0L0.433,0C0.191,0 0,0.191 0,0.433L0,22.966C0,23.208 0.191,23.399 0.433,23.399L3.033,23.399C3.276,23.399 3.466,23.208 3.466,22.966L3.466,18.199L32.066,18.199L32.066,22.966C32.066,23.209 32.256,23.399 32.499,23.399L35.099,23.399C35.341,23.399 35.532,23.209 35.532,22.966L35.532,9.966C35.532,7.34 33.392,5.2 30.766,5.2L30.766,5.2ZM14.733,17.333L3.033,17.333C2.791,17.333 2.6,17.523 2.6,17.766L2.6,22.533L0.867,22.533L0.867,0.866L2.6,0.866L2.6,13.433C2.6,13.675 2.791,13.866 3.033,13.866L14.733,13.866L14.733,17.333ZM34.666,22.533L32.933,22.533L32.933,17.766C32.933,17.524 32.742,17.333 32.499,17.333L15.6,17.333L15.6,6.066L30.766,6.066C32.916,6.066 34.666,7.817 34.666,9.966L34.666,22.533Z" fill="#000000"/>
<path d="M5.2,7.367C5.2,9.516 6.95,11.267 9.1,11.267C11.249,11.267 13,9.516 13,7.367C13,5.218 11.249,3.467 9.1,3.467C6.95,3.467 5.2,5.218 5.2,7.367L5.2,7.367ZM12.133,7.367C12.133,9.039 10.772,10.4 9.1,10.4C7.427,10.4 6.067,9.039 6.067,7.367C6.067,5.694 7.427,4.334 9.1,4.334C10.772,4.333 12.133,5.694 12.133,7.367L12.133,7.367Z" fill="#000000"/>
</svg>
