<svg width="108" height="106" viewBox="0 0 108 106" fill="none" xmlns="http://www.w3.org/2000/svg" xmlns:xlink="http://www.w3.org/1999/xlink">
<path d="M106.329,101.789L91.074,101.789C93.96,99.933 95.884,96.693 95.884,92.997C95.884,87.225 91.193,82.535 85.422,82.535C79.634,82.535 74.96,87.226 74.96,92.997C74.96,96.693 76.866,99.932 79.752,101.789L33.953,101.789C36.839,99.933 38.763,96.693 38.763,92.997C38.763,87.225 34.072,82.535 28.301,82.535C22.513,82.535 17.838,87.226 17.838,92.997C17.838,96.693 19.745,99.932 22.631,101.789L2.246,101.789C1.317,101.789 0.575,102.548 0.575,103.459C0.575,104.371 1.318,105.13 2.246,105.13L106.33,105.13C107.258,105.13 108,104.371 108,103.459C108.001,102.548 107.258,101.789 106.33,101.789L106.329,101.789ZM85.405,88.779C87.734,88.779 89.623,90.669 89.623,92.997C89.623,95.326 87.733,97.216 85.405,97.216C83.076,97.216 81.186,95.325 81.186,92.997C81.169,90.668 83.076,88.779 85.405,88.779L85.405,88.779ZM28.283,88.779C30.612,88.779 32.502,90.669 32.502,92.997C32.502,95.326 30.612,97.216 28.283,97.216C25.954,97.216 24.065,95.325 24.065,92.997C24.065,90.668 25.954,88.779 28.283,88.779Z" fill="#596B86"/>
<path d="M4.928,30.29L19.154,30.459C21.601,30.492 23.609,28.535 23.626,26.088C23.659,23.641 21.685,21.633 19.255,21.616L19.187,21.616C19.204,21.532 19.204,21.481 19.204,21.397C19.238,18.14 16.623,15.474 13.365,15.424C10.192,15.39 7.577,17.854 7.408,20.992C6.699,20.588 5.906,20.368 5.028,20.351C2.295,20.3 0.035,22.511 0,25.262C-0.033,28.013 2.177,30.257 4.928,30.29L4.928,30.29Z" fill="#596B86"/>
<path d="M83.5,5.13C84.428,5.13 85.17,4.371 85.17,3.459L85.17,1.67C85.17,0.742 84.427,0 83.5,0C82.571,0 81.829,0.759 81.829,1.67L81.829,3.442C81.812,4.37 82.571,5.13 83.5,5.13L83.5,5.13Z" fill="#596B86"/>
<path d="M76.901,5.67C77.204,6.21 77.778,6.513 78.352,6.513C78.639,6.513 78.926,6.446 79.196,6.294C80.006,5.839 80.275,4.81 79.803,3.999L78.909,2.446C78.454,1.636 77.424,1.367 76.614,1.839C75.804,2.294 75.534,3.324 76.006,4.134L76.901,5.67Z" fill="#596B86"/>
<path d="M72.209,9.163L73.745,10.041C74.015,10.192 74.302,10.26 74.589,10.26C75.163,10.26 75.736,9.956 76.04,9.416C76.495,8.606 76.226,7.593 75.432,7.121L73.896,6.227C73.086,5.755 72.074,6.041 71.601,6.834C71.129,7.661 71.399,8.69 72.209,9.163L72.209,9.163Z" fill="#596B86"/>
<path d="M71.415,15.424L73.188,15.424C74.116,15.424 74.858,14.665 74.858,13.753C74.858,12.825 74.115,12.083 73.188,12.083L71.415,12.083C70.487,12.083 69.745,12.842 69.745,13.753C69.745,14.664 70.488,15.424 71.415,15.424Z" fill="#596B86"/>
<path d="M87.801,6.277C88.072,6.429 88.358,6.496 88.645,6.496C89.219,6.496 89.792,6.193 90.096,5.653L90.99,4.117C91.446,3.306 91.176,2.294 90.383,1.822C89.573,1.35 88.56,1.636 88.088,2.429L87.194,3.965C86.721,4.792 86.991,5.805 87.801,6.277L87.801,6.277Z" fill="#596B86"/>
<path d="M84.866,16.368C84.123,15.947 83.28,15.727 82.368,15.727C79.483,15.727 77.154,18.073 77.154,20.942C77.154,23.811 79.499,26.157 82.368,26.157L97.286,26.157C99.851,26.157 101.927,24.081 101.927,21.516C101.927,18.951 99.834,16.876 97.286,16.876L97.219,16.876C97.236,16.791 97.236,16.724 97.236,16.64C97.236,13.214 94.451,10.446 91.042,10.446C87.718,10.462 85.001,13.077 84.866,16.368L84.866,16.368Z" fill="#596B86"/>
<path d="M76.851,13.736C76.851,13.955 76.884,14.157 76.901,14.377C78.386,13.144 80.276,12.368 82.352,12.368L82.487,12.368C83.432,10.478 84.985,8.959 86.891,8.048C85.895,7.44 84.748,7.086 83.499,7.086C79.837,7.087 76.851,10.074 76.851,13.736L76.851,13.736Z" fill="#596B86"/>
<path d="M6.144,71.616C6.144,70.283 6.363,68.984 6.802,67.769L9.721,59.366C8.945,58.893 8.034,58.623 7.072,58.623C4.22,58.623 1.908,60.935 1.908,63.787L1.908,78.451C1.908,80.983 3.748,83.092 6.161,83.514L6.16,71.616L6.144,71.616Z" fill="#596B86"/>
<path d="M15.493,52.937L9.959,68.901C9.655,69.779 9.503,70.706 9.503,71.618L9.503,83.97L17.857,83.97C20.388,81.034 24.134,79.177 28.302,79.177C32.47,79.177 36.216,81.051 38.747,83.97L74.978,83.97C77.509,81.034 81.255,79.177 85.424,79.177C89.592,79.177 93.338,81.051 95.869,83.97L101.674,83.97L101.674,78.941C101.674,78.3 101.606,77.693 101.488,77.085C100.678,73.036 97.236,69.913 92.984,69.61L80.598,68.732L70.743,51.519C69.258,48.954 66.524,47.351 63.554,47.351L23.324,47.351C19.78,47.368 16.658,49.596 15.493,52.937L15.493,52.937ZM45.143,55.249C45.143,54.186 46.004,53.309 47.084,53.309L63.52,53.309C64.363,53.309 65.139,53.764 65.561,54.489L72.767,67.078C73.51,68.378 72.581,69.981 71.079,69.981L47.084,69.981C46.021,69.981 45.143,69.12 45.143,68.04L45.143,55.249ZM39.929,55.249L39.929,68.057C39.929,69.12 39.068,69.998 37.988,69.998L18.599,69.998C17.266,69.998 16.337,68.682 16.776,67.433L21.113,54.894C21.434,53.949 22.328,53.325 23.323,53.325L37.988,53.325C39.068,53.309 39.929,54.169 39.929,55.249L39.929,55.249Z" fill="#596B86"/>
<path d="M99.225,92.998C99.225,94.078 99.09,95.125 98.854,96.137L102.938,96.137C104.069,96.137 104.997,95.226 104.997,94.078L104.997,89.387C104.997,88.257 104.086,87.328 102.938,87.328L97.994,87.328C98.769,89.066 99.226,90.973 99.226,92.998L99.225,92.998Z" fill="#596B86"/>
<path d="M8.186,87.328C7.055,87.328 6.127,88.24 6.127,89.387L6.127,94.078C6.127,95.208 7.038,96.137 8.186,96.137L14.835,96.137C14.598,95.125 14.463,94.078 14.463,92.998C14.463,90.973 14.902,89.066 15.695,87.328L8.186,87.328Z" fill="#596B86"/>
<path d="M40.889,87.328C41.665,89.066 42.121,90.973 42.121,92.998C42.121,94.078 41.986,95.124 41.749,96.137L71.972,96.137C71.736,95.124 71.601,94.078 71.601,92.998C71.601,90.973 72.039,89.066 72.833,87.328L40.889,87.328Z" fill="#596B86"/>
</svg>
