<svg width="80" height="40" viewBox="0 0 80 40" fill="none" xmlns="http://www.w3.org/2000/svg" xmlns:xlink="http://www.w3.org/1999/xlink">
<path d="M65.447,-0.654L52.228,-0.65L-0.652,-0.65L-0.652,19.18C-0.652,30.085 8.277,39.011 19.179,39.011L42.318,39.011C50.893,39.011 58.168,33.458 60.918,25.792L65.447,25.792C72.747,25.792 78.671,19.872 78.671,12.566C78.671,5.268 72.745,-0.654 65.449,-0.654L65.447,-0.654ZM65.447,16.871L62.143,16.871L62.143,8.275L65.447,8.275C67.82,8.275 69.744,10.199 69.744,12.568C69.744,14.947 67.81,16.871 65.447,16.871Z" fill="#596B86"/>
</svg>
