<svg width="24" height="24" viewBox="0 0 24 24" fill="none" xmlns="http://www.w3.org/2000/svg" xmlns:xlink="http://www.w3.org/1999/xlink">
<path d="M20.625,0L1.875,0C0.841,0 0,0.841 0,1.875L0,22.125C0,23.159 0.841,24 1.875,24L20.625,24C21.659,24 22.5,23.159 22.5,22.125L22.5,1.875C22.5,0.841 21.659,0 20.625,0ZM21.75,22.125C21.75,22.745 21.245,23.25 20.625,23.25L1.875,23.25C1.255,23.25 0.75,22.745 0.75,22.125L0.75,1.875C0.75,1.255 1.255,0.75 1.875,0.75L20.625,0.75C21.245,0.75 21.75,1.255 21.75,1.875L21.75,22.125Z" fill="#000000"/>
<path d="M20.018,2.279C19.972,2.26 19.924,2.25 19.875,2.25L16.125,2.25C15.918,2.25 15.75,2.418 15.75,2.625C15.75,2.832 15.918,3 16.125,3L18.97,3L13.61,8.36C13.463,8.506 13.463,8.743 13.61,8.89C13.683,8.963 13.779,9 13.875,9C13.971,9 14.067,8.963 14.14,8.89L19.5,3.53L19.5,6.375C19.5,6.582 19.668,6.75 19.875,6.75C20.081,6.75 20.25,6.582 20.25,6.375L20.25,2.625C20.25,2.576 20.24,2.527 20.221,2.481C20.183,2.39 20.11,2.317 20.018,2.279L20.018,2.279Z" fill="#000000"/>
<path d="M8.36,15.11L3,20.47L3,17.625C3,17.418 2.832,17.25 2.625,17.25C2.418,17.25 2.25,17.418 2.25,17.625L2.25,21.375C2.25,21.424 2.26,21.472 2.279,21.518C2.317,21.61 2.39,21.683 2.482,21.721C2.528,21.74 2.576,21.75 2.625,21.75L6.375,21.75C6.582,21.75 6.75,21.582 6.75,21.375C6.75,21.168 6.582,21 6.375,21L3.53,21L8.89,15.64C9.037,15.494 9.037,15.257 8.89,15.11C8.743,14.963 8.506,14.963 8.36,15.11L8.36,15.11Z" fill="#000000"/>
</svg>
