<svg width="112" height="96" viewBox="0 0 112 96" fill="none" xmlns="http://www.w3.org/2000/svg" xmlns:xlink="http://www.w3.org/1999/xlink">
<path d="M97.289,13.363C97.289,11.605 95.883,10.198 94.124,10.198L90.725,10.198L90.725,16.645L94.124,16.645C95.883,16.528 97.289,15.121 97.289,13.363L97.289,13.363Z" fill="#596B86"/>
<path d="M80.762,34.931L90.256,34.931L90.256,52.161L96.468,53.334L96.469,34.931L105.963,34.931C108.659,34.931 110.769,32.703 110.769,30.125L110.769,4.806C110.769,2.11 108.542,0 105.963,0L80.762,0C78.066,0 75.956,2.227 75.956,4.806L75.956,30.007C75.839,32.703 78.066,34.93 80.762,34.93L80.762,34.931ZM86.857,6.213L94.124,6.213C97.992,6.213 101.158,9.378 101.158,13.246C101.158,17.114 97.993,20.28 94.124,20.28L90.725,20.279L90.725,28.484L86.857,28.484L86.857,6.213Z" fill="#596B86"/>
<path d="M104.791,60.718L81.817,56.499C81.582,56.499 81.348,56.264 81.23,56.147C79.003,53.451 64.821,38.565 55.56,38.565L23.091,38.565C15.473,38.565 8.557,45.715 4.22,51.693C1.406,55.444 0,60.015 0,64.703L0,78.301C0,82.637 3.517,86.154 7.853,86.154L9.611,86.154C11.018,91.78 16.058,96 22.154,96C28.249,96 33.289,91.78 34.696,86.154L77.011,86.154C78.418,91.78 83.458,96 89.554,96C95.649,96 100.689,91.78 102.096,86.154L102.331,86.154C106.199,86.154 109.598,83.224 110.067,79.356L111.357,69.51C111.707,65.29 108.894,61.422 104.791,60.719L104.791,60.718ZM21.92,89.788C18.168,89.788 15.121,86.74 15.121,82.989C15.121,79.238 18.168,76.191 21.92,76.191C25.671,76.191 28.718,79.238 28.718,82.989C28.835,86.74 25.788,89.788 21.92,89.788ZM37.275,58.374L16.879,58.374C15.824,58.374 15.121,57.319 15.706,56.381C18.754,50.989 26.373,45.715 30.124,45.715L35.281,45.715C35.985,45.715 36.571,46.183 36.688,46.887L38.68,56.733C38.799,57.554 38.095,58.374 37.275,58.374L37.275,58.374ZM70.095,58.374L47.59,58.374C46.886,58.374 46.3,57.905 46.183,57.201L44.191,47.356C44.074,46.535 44.659,45.715 45.597,45.715L55.56,45.715C58.959,45.715 65.992,51.107 71.033,55.912C71.97,56.85 71.384,58.374 70.095,58.374L70.095,58.374ZM89.318,89.788C85.567,89.788 82.52,86.74 82.52,82.989C82.52,79.238 85.567,76.191 89.318,76.191C93.069,76.191 96.117,79.238 96.117,82.989C96.117,86.74 93.069,89.788 89.318,89.788Z" fill="#596B86"/>
</svg>
