<svg width="110" height="102" viewBox="0 0 110 102" fill="none" xmlns="http://www.w3.org/2000/svg" xmlns:xlink="http://www.w3.org/1999/xlink">
<path d="M28.306,22.124C33.637,22.124 37.985,17.155 37.985,11.062C37.985,4.969 33.637,0 28.306,0C22.975,0 18.627,4.97 18.627,11.062C18.627,17.155 22.975,22.124 28.306,22.124Z" clip-rule="evenodd" fill-rule="evenodd" fill="#596B86"/>
<path d="M17.443,28.846C19.429,24.678 24.377,22.93 28.494,24.942C30.087,25.721 31.323,26.948 32.124,28.403C33.913,31.11 36.857,34.389 40.484,37.076C43.387,39.224 46.676,40.944 50.054,41.571C52.301,41.988 53.787,44.17 53.375,46.443C52.963,48.716 50.81,50.224 48.563,49.807C43.826,48.926 39.395,46.652 35.589,43.834C34.065,42.707 32.635,41.484 31.32,40.226C31.097,41.445 30.873,42.838 30.658,44.313C29.833,49.938 29.313,56.133 29.313,58.972C29.313,62.848 32.684,68.496 35.438,75.567C37.924,81.949 39.687,89.303 39.807,96.815C39.849,99.511 37.725,101.731 35.063,101.772C32.4,101.814 30.208,99.664 30.167,96.968C30.066,90.771 28.561,84.578 26.44,79.125C25.299,76.196 23.995,73.516 22.653,71.192C21.938,75.806 20.672,80.76 18.772,85.331C16.24,91.425 12.553,96.934 7.494,100.346C5.271,101.836 2.274,101.22 0.802,98.968C-0.668,96.715 -0.061,93.683 2.163,92.192C5.474,89.958 8.027,86.017 9.887,81.54C13.633,72.53 12.72,69.519 12.72,58.97C12.72,55.562 13.315,48.323 14.26,41.883C15.026,36.653 16.102,31.659 17.443,28.845L17.443,28.846Z" clip-rule="evenodd" fill-rule="evenodd" fill="#596B86"/>
<path d="M57.88,49.227L104.896,49.227L104.896,40.93C104.896,40.169 105.519,39.547 106.279,39.547C107.04,39.547 107.663,40.168 107.663,40.93L107.663,49.227C108.423,49.227 109.045,49.849 109.045,50.61C109.045,51.371 108.424,51.993 107.663,51.993L107.663,65.822C108.423,65.822 109.045,66.443 109.045,67.204C109.045,67.965 108.424,68.588 107.663,68.588L107.663,82.416C108.423,82.416 109.045,83.039 109.045,83.799L109.045,83.799C109.045,84.559 108.424,85.182 107.663,85.182L107.663,93.48C107.663,94.24 107.04,94.863 106.279,94.863C105.519,94.863 104.896,94.24 104.896,93.48L104.896,85.182L57.88,85.181L57.88,93.479C57.88,94.239 57.257,94.862 56.497,94.862C55.736,94.862 55.114,94.239 55.114,93.479L55.114,85.181C54.353,85.181 53.731,84.558 53.731,83.799L53.731,83.798C53.731,83.038 54.352,82.415 55.114,82.415L55.114,68.585C54.353,68.585 53.731,67.962 53.731,67.202C53.731,66.441 54.352,65.819 55.114,65.819L55.114,51.991C54.353,51.991 53.731,51.37 53.731,50.608C53.731,49.848 54.352,49.225 55.114,49.225L55.114,40.928C55.114,40.168 55.736,39.546 56.497,39.546C57.257,39.546 57.88,40.167 57.88,40.928L57.88,49.227ZM104.894,51.991L57.88,51.991L57.88,65.82L104.896,65.82L104.894,51.991ZM104.894,68.585L57.88,68.585L57.88,82.413L104.896,82.413L104.894,68.585Z" clip-rule="evenodd" fill-rule="evenodd" fill="#596B86"/>
<path d="M56.497,101.773C58.02,101.773 59.262,100.532 59.262,99.008C59.262,97.485 58.02,96.244 56.497,96.244C54.973,96.244 53.733,97.485 53.733,99.008C53.733,100.532 54.974,101.773 56.497,101.773Z" clip-rule="evenodd" fill-rule="evenodd" fill="#596B86"/>
<path d="M106.278,101.773C107.802,101.773 109.044,100.532 109.044,99.008C109.044,97.485 107.803,96.244 106.278,96.244C104.755,96.244 103.514,97.485 103.514,99.008C103.513,100.532 104.755,101.773 106.278,101.773Z" clip-rule="evenodd" fill-rule="evenodd" fill="#596B86"/>
<path d="M77.025,34.064C84.115,34.657 89.683,40.598 89.683,47.844L62.029,47.844C62.029,40.6 67.6,34.658 74.69,34.064C74.553,33.85 74.475,33.595 74.475,33.324C74.475,32.559 75.094,31.941 75.858,31.941C76.621,31.941 77.241,32.56 77.241,33.324C77.241,33.595 77.163,33.85 77.026,34.064L77.025,34.064Z" clip-rule="evenodd" fill-rule="evenodd" fill="#596B86"/>
<path d="M97.981,21.57C97.981,25.385 100.745,26.227 100.745,29.867L100.745,46.461C100.745,47.221 100.123,47.844 99.363,47.844L92.448,47.844C91.688,47.844 91.064,47.221 91.064,46.461L91.064,40.238L97.979,40.238L97.979,33.323L91.064,33.323L91.064,29.867C91.064,26.227 93.831,25.385 93.831,21.57L93.831,17.422L97.98,17.422L97.98,21.57L97.981,21.57Z" clip-rule="evenodd" fill-rule="evenodd" fill="#596B86"/>
<rect  x="93.833" y="10.811" width="4.149" height="5.53" fill="#596B86"/>
</svg>
