<svg width="100" height="100" viewBox="0 0 100 100" fill="none" xmlns="http://www.w3.org/2000/svg" xmlns:xlink="http://www.w3.org/1999/xlink">
<path d="M12.869,49.055L32.412,68.358C33.144,69.082 34.139,69.489 35.175,69.489L96.092,69.489C97.128,69.489 98.123,69.896 98.855,70.62C99.588,71.344 100,72.326 100,73.35L100,84.931C100,85.877 99.648,86.789 99.012,87.496C98.376,88.202 97.5,88.654 96.549,88.765L96.092,88.792L88.521,88.792L92.155,93.853L92.171,93.872C93.414,95.648 92.968,98.048 91.194,99.261L91.115,99.315L91.116,99.315C90.27,99.893 89.228,100.117 88.215,99.942C87.203,99.765 86.302,99.201 85.707,98.373L78.836,88.803L78.828,88.795L21.816,88.795L21.808,88.803L14.937,98.373C14.342,99.201 13.441,99.765 12.429,99.942C11.416,100.117 10.373,99.893 9.528,99.315L9.449,99.261L9.449,99.262C8.592,98.675 8.006,97.774 7.825,96.758C7.644,95.743 7.882,94.698 8.485,93.857L12.119,88.792L6.198,88.792C4.801,88.792 3.511,88.056 2.813,86.862C2.115,85.667 2.115,84.195 2.813,83.001C3.511,81.807 4.801,81.071 6.198,81.071L14.015,73.35L1.144,60.637C0.411,59.913 0,58.931 0,57.908C0,56.884 0.411,55.902 1.144,55.179L7.343,49.055C8.076,48.331 9.07,47.925 10.106,47.925C11.143,47.925 12.136,48.331 12.869,49.055L12.869,49.055ZM17.923,77.21L14.015,81.071L21.48,81.071C21.286,80.65 21.018,80.267 20.686,79.94L17.923,77.21ZM60.916,38.605L60.916,65.629L53.099,65.629L53.099,38.605L25.74,38.605C24.082,38.605 22.426,37.215 21.961,35.621C22.66,27.618 26.144,20.101 31.822,14.35C37.499,8.598 45.017,4.967 53.099,4.072L53.099,3.86C53.099,2.481 53.844,1.206 55.054,0.517C56.263,-0.172 57.753,-0.172 58.962,0.517C60.171,1.206 60.916,2.481 60.916,3.86L60.916,4.072C68.997,4.967 76.514,8.597 82.191,14.348C87.868,20.098 91.353,27.612 92.055,35.613C91.593,37.215 89.932,38.605 88.276,38.605L60.916,38.605Z" clip-rule="evenodd" fill-rule="evenodd" fill="#596B86"/>
</svg>
