<svg width="118" height="100" viewBox="0 0 118 100" fill="none" xmlns="http://www.w3.org/2000/svg" xmlns:xlink="http://www.w3.org/1999/xlink">
<path d="M64.674,93.586C64.674,97.128 61.802,100 58.26,100C54.717,100 51.846,97.128 51.846,93.586C51.846,90.043 54.717,87.172 58.26,87.172C61.802,87.172 64.674,90.043 64.674,93.586Z" fill="#596B86"/>
<path d="M85.292,61.755C77.661,55.525 68.112,52.121 58.261,52.121C48.41,52.121 38.861,55.525 31.231,61.755C30,62.732 29.213,64.162 29.048,65.724C28.882,67.287 29.35,68.851 30.349,70.064C31.347,71.277 32.791,72.038 34.357,72.176C35.922,72.314 37.477,71.817 38.672,70.798C44.207,66.293 51.126,63.834 58.262,63.834C65.398,63.834 72.317,66.293 77.852,70.798C79.047,71.822 80.604,72.323 82.171,72.186C83.74,72.05 85.186,71.289 86.187,70.073C87.186,68.858 87.655,67.291 87.487,65.726C87.319,64.162 86.528,62.73 85.292,61.755L85.292,61.755Z" fill="#596B86"/>
<path d="M110.473,49.14C111.766,34.96 99.742,21.651 85.507,21.483C77.7,-5.472 42.683,-7.619 31.961,18.206C15.184,22.2 5.509,33.997 8.104,47.894C1.312,51.191 -0.766,58.438 0.239,64.029C0.723,67.179 2.327,70.05 4.757,72.114C7.187,74.177 10.279,75.295 13.467,75.263L28.343,75.263C28.914,75.24 29.414,74.872 29.603,74.333C29.794,73.795 29.637,73.195 29.208,72.819C27.313,71.13 26.253,68.697 26.306,66.159C26.36,63.622 27.522,61.236 29.487,59.629C37.608,52.996 47.773,49.373 58.26,49.373C68.747,49.373 78.91,52.996 87.033,59.629C91.14,62.819 91.325,69.541 87.278,72.847C86.854,73.226 86.705,73.827 86.903,74.361C87.102,74.894 87.606,75.253 88.176,75.262L102.874,75.262C110.549,75.621 116.402,68.63 116.502,61.086C116.341,55.745 114.21,51.541 110.472,49.141L110.473,49.14ZM21.261,50.255C20.902,50.923 20.069,51.173 19.401,50.814C16.566,49.286 13.228,48.985 10.164,49.98C10.847,49.734 11.22,49 11.017,48.304C10.902,47.863 10.813,47.416 10.751,46.966C14.133,46.275 17.651,46.781 20.702,48.396C21.37,48.755 21.62,49.588 21.261,50.255L21.261,50.255ZM50.298,22.51C49.929,23.173 49.092,23.411 48.429,23.041C43.803,20.562 38.468,19.738 33.309,20.705C33.737,20.594 34.085,20.284 34.244,19.871C34.547,19.12 34.868,18.377 35.225,17.663C40.259,17.211 45.315,18.246 49.767,20.641C50.43,21.01 50.668,21.847 50.298,22.511L50.298,22.51ZM65.884,33.909C65.68,34.225 65.357,34.443 64.988,34.513C64.619,34.584 64.238,34.5 63.932,34.282C63.626,34.064 63.423,33.73 63.37,33.359C63.316,32.988 63.417,32.61 63.649,32.315C68.034,26.049 75.007,22.092 82.635,21.539C82.818,22.088 82.983,22.638 83.139,23.206L83.139,23.207C83.314,23.798 83.85,24.209 84.467,24.224C77.062,24.221 70.124,27.837 65.884,33.909L65.884,33.909ZM102.243,49.376C101.484,49.376 100.869,48.761 100.869,48.002C100.869,47.243 101.484,46.628 102.243,46.628C104.145,46.623 106.029,46.993 107.787,47.718C107.778,48.387 107.732,49.065 107.659,49.734C107.601,50.261 107.85,50.774 108.3,51.054C106.474,49.948 104.378,49.368 102.243,49.376L102.243,49.376Z" fill="#596B86"/>
<path d="M72.243,74.344C68.118,71.544 63.247,70.047 58.261,70.047C53.274,70.047 48.403,71.544 44.278,74.344C42.562,75.548 41.619,77.574 41.803,79.661C41.987,81.749 43.271,83.579 45.17,84.463C47.07,85.347 49.297,85.15 51.013,83.948C53.162,82.525 55.683,81.767 58.261,81.767C60.838,81.767 63.359,82.525 65.508,83.948C66.782,84.84 68.358,85.191 69.89,84.922C71.422,84.653 72.784,83.787 73.677,82.514C74.571,81.24 74.921,79.664 74.653,78.132C74.383,76.6 73.517,75.238 72.243,74.344L72.243,74.344Z" fill="#596B86"/>
</svg>
